<svg width="123" height="56" viewBox="0 0 123 56" fill="none" xmlns="http://www.w3.org/2000/svg">
<path fill-rule="evenodd" clip-rule="evenodd" d="M80.7517 32.074C82.9159 32.074 84.6706 30.5771 84.6706 28.7302C84.6706 26.8841 82.9159 25.3896 80.7517 25.3896C78.5876 25.3896 76.832 26.8841 76.832 28.7302C76.8329 30.5771 78.5876 32.074 80.7517 32.074Z" fill="#005E9E"/>
<path fill-rule="evenodd" clip-rule="evenodd" d="M75.8154 49.3675C75.8154 48.3769 75.1214 47.519 74.1604 47.5041C71.662 47.4629 64.9927 47.5041 64.9927 47.5041C64.9927 47.5041 65.0775 38.4185 65.0704 32.9071H65.0735C65.0854 31.7905 65.1171 29.8176 65.102 29.1746C65.0466 26.923 61.7116 26.2197 59.8317 26.1302C58.1261 26.0479 58.2197 27.5376 58.2197 27.5376V49.948C58.2197 51.395 59.7835 51.7387 59.7835 51.7387H75.8336C75.8336 51.7387 75.8154 50.5524 75.8154 49.3675Z" fill="#005E9E"/>
<path fill-rule="evenodd" clip-rule="evenodd" d="M97.988 33.9139C97.2442 26.212 101.766 26.5811 103.434 26.9682C104.062 27.0626 104.069 26.4234 104.058 26.2413C103.99 25.6117 103.658 25.077 103.203 24.6938C101.584 23.3315 98.5734 23.5041 98.5734 23.5041C93.1051 23.5041 91.4043 27.5686 91.4043 30.8917C91.4043 32.6032 91.2307 33.9139 91.2307 33.9139H89.5783C88.6333 33.9139 88.2507 34.9054 88.2507 35.4123V36.6382H91.1864V45.0048C85.2825 50.0346 84.0823 47.1891 84.0823 45.9448C84.083 43.725 84.0902 39.5536 84.0902 36.8435C84.0902 34.6164 80.8788 33.8894 78.972 33.7983C77.0613 33.7064 77.3337 35.2064 77.3337 35.2064V46.3867C77.3337 50.2698 78.8785 52.0961 82.627 52.0961C86.2797 52.0961 89.911 49.1856 91.2776 47.5961C91.2776 47.5961 91.2776 50.642 91.3354 52.9277C91.344 53.2666 91.3552 53.5431 91.367 53.73C91.4582 55.1856 92.9134 55.0067 92.9134 55.0067C98.1076 55.005 97.988 51.3286 97.988 51.3286V36.7318H101.23C101.876 36.7318 102.981 36.3968 102.981 35.1803C102.981 34.439 102.964 33.9139 102.964 33.9139H97.988Z" fill="#005E9E"/>
<path fill-rule="evenodd" clip-rule="evenodd" d="M121.417 46.6817C119.596 47.8009 117.41 48.71 114.138 48.71C111.044 48.71 108.774 46.9351 108.774 43.2668C108.774 41.6083 109.796 37.5083 113.782 37.5083C115.323 37.4774 116.198 38.484 116.198 39.7765C116.198 41.465 114.291 43.4949 110.206 43.7332C110.812 45.5136 112.774 45.9627 114.362 45.9627C116.735 45.9627 122.439 44.2345 121.972 38.9204C121.608 34.7855 117.709 33.5596 114.519 33.5596C107.05 33.5596 101.339 38.1569 101.87 44.3913C102.451 51.2008 108.522 52.0744 112.529 52.0744C116.591 52.0744 120.312 50.351 121.689 48.4329C121.953 48.0646 122.248 47.5704 122.248 47.1395C122.248 46.6611 121.877 46.3975 121.417 46.6817Z" fill="#005E9E"/>
<path fill-rule="evenodd" clip-rule="evenodd" d="M69.094 18.6899V11.7562H63.6708V18.6899H58.2031V1.4043H63.6708V7.89612H69.094V1.4043H74.5884V18.6899H69.094Z" fill="#ED1C24"/>
<path fill-rule="evenodd" clip-rule="evenodd" d="M87.1782 9.3163C87.1782 5.73181 86.4352 4.94063 83.9438 4.94063H82.548V15.1563H83.9438C86.4352 15.1563 87.1782 14.2717 87.1782 10.6872V9.3163ZM83.7593 18.995C81.3369 18.995 79.5916 18.9023 77.2422 18.6901V1.40447C79.5916 1.1938 81.2679 1.10352 83.7593 1.10352C89.809 1.10352 92.5554 3.42955 92.5554 9.3163L92.5563 10.6872C92.5563 16.6666 89.8787 18.995 83.7593 18.995Z" fill="#ED1C24"/>
<path fill-rule="evenodd" clip-rule="evenodd" d="M100.167 5.12737V8.19865H106.754V11.6414H100.167V18.6899H94.6992V1.4043H107.265V5.12737H100.167Z" fill="#ED1C24"/>
<path fill-rule="evenodd" clip-rule="evenodd" d="M116.394 19.1104C110.969 19.1104 108.246 17.1789 108.246 10.8494V9.2211C108.246 2.91618 110.969 0.985352 116.393 0.985352C117.764 0.985352 120.51 1.24116 121.441 1.49617V5.15035C120.208 5.0561 118.555 4.96344 117.065 4.96344C114.856 4.96265 113.761 5.63663 113.761 9.2211V10.8494C113.761 14.4814 114.856 15.1561 117.065 15.1561C118.555 15.1561 120.208 15.0627 121.441 14.9685V18.5989C120.51 18.8776 117.764 19.1104 116.394 19.1104Z" fill="#ED1C24"/>
<path fill-rule="evenodd" clip-rule="evenodd" d="M50.8055 51.7415V51.7408L36.4244 37.3624V37.3639H14.631V15.5767H14.6327L0.251584 1.19922H0.25V51.7415H50.8055Z" fill="#B11116"/>
<path fill-rule="evenodd" clip-rule="evenodd" d="M14.631 15.5767H36.4229V37.3624L50.8039 51.7408V1.19922H0.25L14.631 15.5767Z" fill="#ED1C24"/>
</svg>
