<svg width="149" height="32" viewBox="0 0 149 32" fill="none" xmlns="http://www.w3.org/2000/svg">
<path fill-rule="evenodd" clip-rule="evenodd" d="M45.8702 18.4121C47.1034 18.4121 48.1032 17.5256 48.1032 16.4317C48.1032 15.3383 47.1034 14.4531 45.8702 14.4531C44.637 14.4531 43.6367 15.3383 43.6367 16.4317C43.6372 17.5256 44.637 18.4121 45.8702 18.4121Z" fill="#005E9E"/>
<path fill-rule="evenodd" clip-rule="evenodd" d="M43.0581 28.6555C43.0581 28.0688 42.6626 27.5607 42.115 27.5519C40.6914 27.5275 36.8911 27.5519 36.8911 27.5519C36.8911 27.5519 36.9394 22.1707 36.9354 18.9064H36.9372C36.9439 18.245 36.962 17.0765 36.9534 16.6957C36.9218 15.3621 35.0215 14.9455 33.9503 14.8926C32.9785 14.8438 33.0318 15.7261 33.0318 15.7261V28.9994C33.0318 29.8563 33.9229 30.0599 33.9229 30.0599H43.0684C43.0684 30.0599 43.0581 29.3573 43.0581 28.6555Z" fill="#005E9E"/>
<path fill-rule="evenodd" clip-rule="evenodd" d="M55.6917 19.5017C55.2679 14.94 57.8444 15.1586 58.7951 15.3879C59.1525 15.4438 59.1566 15.0652 59.1503 14.9574C59.1119 14.5845 58.9228 14.2678 58.6632 14.0408C57.7406 13.234 56.0253 13.3362 56.0253 13.3362C52.9094 13.3362 51.9403 15.7435 51.9403 17.7117C51.9403 18.7254 51.8414 19.5017 51.8414 19.5017H50.8998C50.3613 19.5017 50.1433 20.089 50.1433 20.3892V21.1153H51.8161V26.0706C48.452 29.0496 47.7681 27.3643 47.7681 26.6274C47.7685 25.3126 47.7726 22.8419 47.7726 21.2368C47.7726 19.9178 45.9427 19.4872 44.8562 19.4332C43.7675 19.3788 43.9227 20.2672 43.9227 20.2672V26.8891C43.9227 29.189 44.8029 30.2707 46.9389 30.2707C49.0202 30.2707 51.0894 28.5468 51.8681 27.6054C51.8681 27.6054 51.8681 29.4094 51.901 30.7632C51.9059 30.9639 51.9123 31.1277 51.919 31.2383C51.971 32.1005 52.8002 31.9945 52.8002 31.9945C55.7599 31.9935 55.6917 29.8161 55.6917 29.8161V21.1707H57.5393C57.9072 21.1707 58.5369 20.9723 58.5369 20.2518C58.5369 19.8127 58.5274 19.5017 58.5274 19.5017H55.6917Z" fill="#005E9E"/>
<path fill-rule="evenodd" clip-rule="evenodd" d="M69.0433 27.0649C68.0056 27.7278 66.7598 28.2663 64.8955 28.2663C63.1324 28.2663 61.8392 27.215 61.8392 25.0424C61.8392 24.0601 62.4215 21.6317 64.6929 21.6317C65.5708 21.6134 66.0696 22.2096 66.0696 22.9751C66.0696 23.9752 64.9827 25.1775 62.6552 25.3186C63.0006 26.3731 64.1187 26.6391 65.0233 26.6391C66.3756 26.6391 69.6256 25.6155 69.3593 22.4681C69.1522 20.0191 66.9304 19.293 65.1127 19.293C60.8569 19.293 57.6024 22.0159 57.9053 25.7084C58.2362 29.7415 61.6956 30.2589 63.9787 30.2589C66.2935 30.2589 68.4136 29.2382 69.1981 28.1021C69.3485 27.884 69.5169 27.5913 69.5169 27.3361C69.5169 27.0527 69.3056 26.8966 69.0433 27.0649Z" fill="#005E9E"/>
<path fill-rule="evenodd" clip-rule="evenodd" d="M39.2282 10.4879V6.38123H36.138V10.4879H33.0225V0.25H36.138V4.09497H39.2282V0.25H42.359V10.4879H39.2282Z" fill="#ED1C24"/>
<path fill-rule="evenodd" clip-rule="evenodd" d="M49.5318 4.93458C49.5318 2.81156 49.1084 2.34296 47.6888 2.34296H46.8935V8.39348H47.6888C49.1084 8.39348 49.5318 7.86955 49.5318 5.74654V4.93458ZM47.5837 10.6671C46.2033 10.6671 45.2089 10.6122 43.8701 10.4865V0.248559C45.2089 0.123787 46.164 0.0703125 47.5837 0.0703125C51.0309 0.0703125 52.5958 1.44798 52.5958 4.93458L52.5963 5.74654C52.5963 9.28798 51.0706 10.6671 47.5837 10.6671Z" fill="#ED1C24"/>
<path fill-rule="evenodd" clip-rule="evenodd" d="M56.9342 2.4551V4.27416H60.6871V6.3132H56.9342V10.4879H53.8184V0.25H60.9787V2.4551H56.9342Z" fill="#ED1C24"/>
<path fill-rule="evenodd" clip-rule="evenodd" d="M66.1797 10.7351C63.0886 10.7351 61.5371 9.5911 61.5371 5.84227V4.87786C61.5371 1.14359 63.0886 0 66.1792 0C66.9605 0 68.5251 0.15151 69.0555 0.302547V2.46684C68.3531 2.41102 67.411 2.35614 66.5625 2.35614C65.3035 2.35567 64.6797 2.75485 64.6797 4.87786V5.84227C64.6797 7.99341 65.3035 8.39304 66.5625 8.39304C67.411 8.39304 68.3531 8.33774 69.0555 8.28194V10.4321C68.5251 10.5972 66.9605 10.7351 66.1797 10.7351Z" fill="#ED1C24"/>
<path fill-rule="evenodd" clip-rule="evenodd" d="M28.8072 30.0601V30.0597L20.6127 21.5437V21.5446H8.19448V8.64049H8.19545L0.000902725 0.125H0V30.0601H28.8072Z" fill="#B11116"/>
<path fill-rule="evenodd" clip-rule="evenodd" d="M8.19548 8.64049H20.6128V21.5437L28.8073 30.0597V0.125H0.000976562L8.19548 8.64049Z" fill="#ED1C24"/>
<line x1="78.0176" y1="4" x2="78.0176" y2="28" stroke="#E6EBF5"/>
<path d="M89.2796 9.436V22H86.7596V9.436H89.2796ZM97.2953 11.884C98.4833 11.884 99.4433 12.262 100.175 13.018C100.907 13.762 101.273 14.806 101.273 16.15V22H98.7533V16.492C98.7533 15.7 98.5553 15.094 98.1593 14.674C97.7633 14.242 97.2233 14.026 96.5393 14.026C95.8433 14.026 95.2913 14.242 94.8833 14.674C94.4873 15.094 94.2893 15.7 94.2893 16.492V22H91.7693V12.028H94.2893V13.27C94.6253 12.838 95.0513 12.502 95.5673 12.262C96.0953 12.01 96.6713 11.884 97.2953 11.884ZM107.486 22.162C106.67 22.162 105.938 22.018 105.29 21.73C104.642 21.43 104.126 21.028 103.742 20.524C103.37 20.02 103.166 19.462 103.13 18.85H105.668C105.716 19.234 105.902 19.552 106.226 19.804C106.562 20.056 106.976 20.182 107.468 20.182C107.948 20.182 108.32 20.086 108.584 19.894C108.86 19.702 108.998 19.456 108.998 19.156C108.998 18.832 108.83 18.592 108.494 18.436C108.17 18.268 107.648 18.088 106.928 17.896C106.184 17.716 105.572 17.53 105.092 17.338C104.624 17.146 104.216 16.852 103.868 16.456C103.532 16.06 103.364 15.526 103.364 14.854C103.364 14.302 103.52 13.798 103.832 13.342C104.156 12.886 104.612 12.526 105.2 12.262C105.8 11.998 106.502 11.866 107.306 11.866C108.494 11.866 109.442 12.166 110.15 12.766C110.858 13.354 111.248 14.152 111.32 15.16H108.908C108.872 14.764 108.704 14.452 108.404 14.224C108.116 13.984 107.726 13.864 107.234 13.864C106.778 13.864 106.424 13.948 106.172 14.116C105.932 14.284 105.812 14.518 105.812 14.818C105.812 15.154 105.98 15.412 106.316 15.592C106.652 15.76 107.174 15.934 107.882 16.114C108.602 16.294 109.196 16.48 109.664 16.672C110.132 16.864 110.534 17.164 110.87 17.572C111.218 17.968 111.398 18.496 111.41 19.156C111.41 19.732 111.248 20.248 110.924 20.704C110.612 21.16 110.156 21.52 109.556 21.784C108.968 22.036 108.278 22.162 107.486 22.162ZM115.998 13.468C116.322 13.012 116.766 12.634 117.33 12.334C117.906 12.022 118.56 11.866 119.292 11.866C120.144 11.866 120.912 12.076 121.596 12.496C122.292 12.916 122.838 13.516 123.234 14.296C123.642 15.064 123.846 15.958 123.846 16.978C123.846 17.998 123.642 18.904 123.234 19.696C122.838 20.476 122.292 21.082 121.596 21.514C120.912 21.946 120.144 22.162 119.292 22.162C118.56 22.162 117.912 22.012 117.348 21.712C116.796 21.412 116.346 21.034 115.998 20.578V26.752H113.478V12.028H115.998V13.468ZM121.272 16.978C121.272 16.378 121.146 15.862 120.894 15.43C120.654 14.986 120.33 14.65 119.922 14.422C119.526 14.194 119.094 14.08 118.626 14.08C118.17 14.08 117.738 14.2 117.33 14.44C116.934 14.668 116.61 15.004 116.358 15.448C116.118 15.892 115.998 16.414 115.998 17.014C115.998 17.614 116.118 18.136 116.358 18.58C116.61 19.024 116.934 19.366 117.33 19.606C117.738 19.834 118.17 19.948 118.626 19.948C119.094 19.948 119.526 19.828 119.922 19.588C120.33 19.348 120.654 19.006 120.894 18.562C121.146 18.118 121.272 17.59 121.272 16.978ZM126.956 10.84C126.512 10.84 126.14 10.702 125.84 10.426C125.552 10.138 125.408 9.784 125.408 9.364C125.408 8.944 125.552 8.596 125.84 8.32C126.14 8.032 126.512 7.888 126.956 7.888C127.4 7.888 127.766 8.032 128.054 8.32C128.354 8.596 128.504 8.944 128.504 9.364C128.504 9.784 128.354 10.138 128.054 10.426C127.766 10.702 127.4 10.84 126.956 10.84ZM128.198 12.028V22H125.678V12.028H128.198ZM133.207 13.576C133.531 13.048 133.951 12.634 134.467 12.334C134.995 12.034 135.595 11.884 136.267 11.884V14.53H135.601C134.809 14.53 134.209 14.716 133.801 15.088C133.405 15.46 133.207 16.108 133.207 17.032V22H130.687V12.028H133.207V13.576ZM147.235 16.798C147.235 17.158 147.211 17.482 147.163 17.77H139.873C139.933 18.49 140.185 19.054 140.629 19.462C141.073 19.87 141.619 20.074 142.267 20.074C143.203 20.074 143.869 19.672 144.265 18.868H146.983C146.695 19.828 146.143 20.62 145.327 21.244C144.511 21.856 143.509 22.162 142.321 22.162C141.361 22.162 140.497 21.952 139.729 21.532C138.973 21.1 138.379 20.494 137.947 19.714C137.527 18.934 137.317 18.034 137.317 17.014C137.317 15.982 137.527 15.076 137.947 14.296C138.367 13.516 138.955 12.916 139.711 12.496C140.467 12.076 141.337 11.866 142.321 11.866C143.269 11.866 144.115 12.07 144.859 12.478C145.615 12.886 146.197 13.468 146.605 14.224C147.025 14.968 147.235 15.826 147.235 16.798ZM144.625 16.078C144.613 15.43 144.379 14.914 143.923 14.53C143.467 14.134 142.909 13.936 142.249 13.936C141.625 13.936 141.097 14.128 140.665 14.512C140.245 14.884 139.987 15.406 139.891 16.078H144.625Z" fill="url(#paint0_linear_114_29323)"/>
<defs>
<linearGradient id="paint0_linear_114_29323" x1="84.2063" y1="10.1395" x2="149.096" y2="10.4023" gradientUnits="userSpaceOnUse">
<stop stop-color="#ED1C24"/>
<stop offset="1" stop-color="#005E9E"/>
</linearGradient>
</defs>
</svg>
